<svg xmlns="http://www.w3.org/2000/svg" width="57.989" height="61.687" viewBox="0 0 57.989 61.687"><defs><style>.a{fill:#fff;}</style></defs><path class="a" d="M128.091,113.2a5.272,5.272,0,0,0-4.623-.9L96.5,119.646a6.8,6.8,0,0,0-5,6.549v28.857a11.137,11.137,0,1,0,3,7.586V126.195a3.8,3.8,0,0,1,2.792-3.655l26.965-7.349a2.315,2.315,0,0,1,2.922,2.233v27.628a11.137,11.137,0,1,0,3,7.586V117.424A5.278,5.278,0,0,0,128.091,113.2ZM83.345,170.793a8.155,8.155,0,1,1,8.155-8.155A8.164,8.164,0,0,1,83.345,170.793Zm35.679-10a8.155,8.155,0,1,1,8.155-8.155A8.164,8.164,0,0,1,119.024,160.793Z" transform="translate(-72.19 -112.106)"/></svg>