<svg xmlns="http://www.w3.org/2000/svg" width="29.709" height="25.442" viewBox="0 0 29.709 25.442"><defs><style>.a{fill:#fff;}</style></defs><path class="a" d="M87.638,171.5a2.384,2.384,0,0,1-1.387-.447L80.124,165.7H73.138a3.513,3.513,0,0,1-3.509-3.508v-6.828a3.513,3.513,0,0,1,3.509-3.509h6.986l6.07-5.307a2.384,2.384,0,0,1,3.832,1.895v20.67a2.391,2.391,0,0,1-2.388,2.388Zm-14.5-18.146a2.012,2.012,0,0,0-2.009,2.009v6.828a2.011,2.011,0,0,0,2.009,2.008h7.55l6.494,5.679a.861.861,0,0,0,.863.022.871.871,0,0,0,.481-.788v-20.67a.887.887,0,0,0-1.4-.721l-6.436,5.633Zm18.36-2.422v1a6.845,6.845,0,0,1,0,13.69v1a7.845,7.845,0,0,0,0-15.69Zm0,2.15v1a4.7,4.7,0,0,1,0,9.39v1a5.7,5.7,0,0,0,0-11.39Zm0,2.32v1a2.375,2.375,0,1,1,0,4.75v1a3.375,3.375,0,1,0,0-6.75Z" transform="translate(-69.629 -146.057)"/></svg>