<svg xmlns="http://www.w3.org/2000/svg" width="39.086" height="39.086" viewBox="0 0 39.086 39.086"><defs><style>.a{fill:#ff0050;}</style></defs><path class="a" d="M71.62,142.543A19.543,19.543,0,1,1,91.164,123,19.565,19.565,0,0,1,71.62,142.543Zm0-35.586A16.043,16.043,0,1,0,87.664,123,16.06,16.06,0,0,0,71.62,106.957Zm2,17.25v-9.931a2,2,0,0,0-4,0v9.931a2,2,0,0,0,4,0Zm-1.613,9.475a1.707,1.707,0,0,0,.38-.109,1.413,1.413,0,0,0,.34-.19,1.79,1.79,0,0,0,.309-.241,2.032,2.032,0,0,0,.581-1.419,1.737,1.737,0,0,0-.04-.391,1.556,1.556,0,0,0-.11-.369,2.231,2.231,0,0,0-.181-.35,2.392,2.392,0,0,0-.25-.3,2.06,2.06,0,0,0-2.829,0,2.01,2.01,0,0,0-.59,1.411,2.593,2.593,0,0,0,.04.39,2.434,2.434,0,0,0,.12.38,2.156,2.156,0,0,0,.18.339,2.293,2.293,0,0,0,.25.31,1.76,1.76,0,0,0,.3.241,1.7,1.7,0,0,0,.35.19,1.788,1.788,0,0,0,.37.109,1.669,1.669,0,0,0,.39.041A1.614,1.614,0,0,0,72.007,133.682Z" transform="translate(-52.078 -103.457)"/></svg>