<svg xmlns="http://www.w3.org/2000/svg" width="54.288" height="57.54" viewBox="0 0 54.288 57.54"><defs><style>.a{fill:#1e1e1e;}</style></defs><path class="a" d="M123.184,177.8,110.8,190.189a2,2,0,0,1-2.828-2.828l8.97-8.971H71.483a2,2,0,0,1,0-4h45.46l-8.97-8.971a2,2,0,0,1,2.828-2.828l12.383,12.384a1.993,1.993,0,0,1,.251.306c.032.049.055.1.083.153a1.921,1.921,0,0,1,.1.191,1.812,1.812,0,0,1,.063.2c.017.057.039.112.051.171a2.028,2.028,0,0,1,0,.784c-.012.059-.034.114-.051.171a1.812,1.812,0,0,1-.063.2,1.921,1.921,0,0,1-.1.191c-.028.051-.051.1-.083.153A1.993,1.993,0,0,1,123.184,177.8ZM69.818,204.051c-.032.049-.054.1-.082.153a1.843,1.843,0,0,0-.1.192,1.972,1.972,0,0,0-.063.2c-.017.057-.039.112-.051.171a2.023,2.023,0,0,0,0,.783c.012.059.034.114.051.171a1.973,1.973,0,0,0,.063.2,1.843,1.843,0,0,0,.1.192c.028.051.05.1.082.153a2.054,2.054,0,0,0,.251.306l12.384,12.383a2,2,0,1,0,2.828-2.828L76.31,207.16h45.46a2,2,0,0,0,0-4H76.31l8.971-8.971a2,2,0,1,0-2.828-2.828L70.069,203.745A2.054,2.054,0,0,0,69.818,204.051Z" transform="translate(-69.483 -162.005)"/></svg>