<svg xmlns="http://www.w3.org/2000/svg" width="23.584" height="23.584" viewBox="0 0 23.584 23.584"><defs><style>.a{fill:#fff;}</style></defs><g transform="translate(-14.927 -169.215) rotate(45)"><path class="a" d="M1968.561-279.48h-27.353a1.5,1.5,0,0,1-1.5-1.5,1.5,1.5,0,0,1,1.5-1.5h27.353a1.5,1.5,0,0,1,1.5,1.5A1.5,1.5,0,0,1,1968.561-279.48Z" transform="translate(-1808 390.078)"/><path class="a" d="M27.353,1.5H0A1.5,1.5,0,0,1-1.5,0,1.5,1.5,0,0,1,0-1.5H27.353a1.5,1.5,0,0,1,1.5,1.5A1.5,1.5,0,0,1,27.353,1.5Z" transform="translate(146.884 95.422) rotate(90)"/></g></svg>