<svg xmlns="http://www.w3.org/2000/svg" width="25" height="25.007" viewBox="0 0 25 25.007"><defs><style>.a{fill:#fff;}</style></defs><path class="a" d="M27.436,17A3.217,3.217,0,0,1,29.5,14a12.752,12.752,0,0,0-1.543-3.717,3.26,3.26,0,0,1-1.309.28,3.21,3.21,0,0,1-2.936-4.518A12.713,12.713,0,0,0,20,4.5a3.214,3.214,0,0,1-6,0,12.752,12.752,0,0,0-3.717,1.543,3.21,3.21,0,0,1-2.936,4.518,3.154,3.154,0,0,1-1.309-.28A13.033,13.033,0,0,0,4.5,14.005a3.216,3.216,0,0,1,.007,6,12.752,12.752,0,0,0,1.543,3.717,3.211,3.211,0,0,1,4.238,4.238,12.826,12.826,0,0,0,3.717,1.543,3.208,3.208,0,0,1,5.99,0,12.752,12.752,0,0,0,3.717-1.543,3.214,3.214,0,0,1,4.238-4.238,12.826,12.826,0,0,0,1.543-3.717A3.232,3.232,0,0,1,27.436,17ZM17.059,22.2a5.208,5.208,0,1,1,5.208-5.208A5.207,5.207,0,0,1,17.059,22.2Z" transform="translate(-4.5 -4.5)"/></svg>