<svg xmlns="http://www.w3.org/2000/svg" width="138" height="87.5" viewBox="0 0 138 87.5"><defs><style>.a{fill:#2e2e2e;}.b{fill:#fff;}</style></defs><g transform="translate(-203 -324.5)"><g transform="translate(-878.25 -109.5)"><rect class="a" width="36" height="36" rx="7" transform="translate(1132 434)"/></g><g transform="translate(254.25 331)"><path class="b" d="M25.672,16.172a1,1,0,0,1-.707-.293L18,8.914l-6.964,6.964a1,1,0,1,1-1.414-1.414l7.672-7.672a1,1,0,0,1,1.414,0l7.672,7.672a1,1,0,0,1-.707,1.707Z"/></g><g transform="translate(-878 -109)"><rect class="a" width="36" height="36" rx="7" transform="translate(1132 485)"/></g><g transform="translate(264 379.672)"><path class="b" d="M18,16.172a1,1,0,0,1-.707-.293L9.621,8.207a1,1,0,1,1,1.414-1.414L18,13.757l6.965-6.964a1,1,0,0,1,1.414,1.414l-7.672,7.672A1,1,0,0,1,18,16.172Z" transform="translate(-10.328 5.828)"/></g><g transform="translate(-878 -109)"><rect class="a" width="36" height="36" rx="7" transform="translate(1183 485)"/></g><g transform="translate(306.671 401.343) rotate(-90)"><path class="b" d="M18,16.172a1,1,0,0,1-.707-.293L9.621,8.207a1,1,0,1,1,1.414-1.414L18,13.757l6.965-6.964a1,1,0,0,1,1.414,1.414l-7.672,7.672A1,1,0,0,1,18,16.172Z" transform="translate(-10.328 5.828)"/></g><g transform="translate(-878 -109)"><rect class="a" width="36" height="36" rx="7" transform="translate(1081 485)"/></g><g transform="translate(216 401.343) rotate(-90)"><path class="b" d="M15.343,8.672a1,1,0,0,1-.707-.293L7.672,1.414.707,8.379a1,1,0,0,1-1.414,0,1,1,0,0,1,0-1.414L6.965-.707a1,1,0,0,1,1.414,0L16.05,6.964a1,1,0,0,1-.707,1.707Z"/></g></g></svg>